<svg width="50" height="45" viewBox="0 0 50 45" fill="none" xmlns="http://www.w3.org/2000/svg">
<path d="M28.6718 44.323L25.0005 40.2927L21.3293 44.323C20.7574 44.9509 19.8298 44.9509 19.2578 44.323C18.6857 43.6951 18.6857 42.6769 19.2578 42.0488L23.9647 36.8816C24.5367 36.2537 25.4642 36.2537 26.0363 36.8816L30.7432 42.0488C31.3153 42.6767 31.3153 43.695 30.7432 44.323C30.171 44.9512 29.2436 44.9509 28.6718 44.323Z" fill="#3A7F0D"/>
<path d="M28.6717 44.323C29.2437 44.9509 30.171 44.9512 30.7433 44.323C31.3153 43.6951 31.3153 42.6769 30.7433 42.0489L26.0363 36.8816C25.7503 36.5676 25.3754 36.4106 25.0006 36.4106V40.2927L28.6717 44.323Z" fill="#3A7F0D"/>
<path d="M25.0004 39.6267C15.8151 39.6267 8.34229 31.4232 8.34229 21.3397C8.34229 18.1263 9.11571 14.962 10.5765 12.1924C10.9819 11.4239 11.8782 11.1616 12.5781 11.6065C13.2782 12.0515 13.5172 13.0353 13.1118 13.804C11.909 16.0844 11.2719 18.6916 11.2719 21.3397C11.2719 29.6499 17.4304 36.4105 25.0004 36.4105C32.5703 36.4105 38.7288 29.6499 38.7288 21.3397C38.7288 18.6916 38.0918 16.0844 36.8889 13.804C36.4835 13.0353 36.7224 12.0515 37.4226 11.6065C38.1226 11.1617 39.0188 11.4239 39.4242 12.1924C40.885 14.962 41.6584 18.1264 41.6584 21.3397C41.6584 31.4232 34.1856 39.6267 25.0004 39.6267Z" fill="#3A7F0D"/>
<path d="M25.0006 36.4105C32.5705 36.4105 38.7291 29.6498 38.7291 21.3396C38.7291 18.6915 38.0921 16.0843 36.8892 13.804C36.4838 13.0353 36.7227 12.0515 37.4228 11.6065C38.1228 11.1617 39.0191 11.4239 39.4245 12.1923C40.8853 14.962 41.6587 18.1264 41.6587 21.3396C41.6587 31.4232 34.186 39.6266 25.0006 39.6266V36.4105Z" fill="#3A7F0D"/>
<path d="M28.9229 30.0173H22.6469C21.8379 30.0173 21.1821 29.2974 21.1821 28.4093V19.6828H18.7244C18.1695 19.6828 17.6624 19.3387 17.4142 18.7938C17.1661 18.2491 17.2196 17.5971 17.5526 17.1099L22.2595 10.2201C22.5362 9.81522 22.9703 9.5769 23.4314 9.5769H28.9228C29.7317 9.5769 30.3876 10.2969 30.3876 11.185V28.4093C30.3877 29.2974 29.7318 30.0173 28.9229 30.0173Z" fill="#49A010"/>
<path d="M11.1107 14.3928L7.92891 12.3761C5.35191 10.7429 4.46668 7.13055 5.95717 4.29702L7.79356 0.804285C8.19805 0.0353046 9.09364 -0.228205 9.79431 0.215409L12.9768 2.23236C15.5489 3.8623 16.4339 7.48637 14.9493 10.3107C14.9492 10.3109 14.9488 10.3115 14.949 10.3113C14.9493 10.3107 13.112 13.8038 13.1119 13.804C12.7095 14.5693 11.815 14.8391 11.1107 14.3928Z" fill="#49A010"/>
<path d="M9.80751 22.9477H6.13375C3.16321 22.9477 0.746456 20.2946 0.746456 17.0335V13.0002C0.746456 12.1121 1.4023 11.3921 2.21127 11.3921H5.88503C8.85557 11.3921 11.2723 14.0451 11.2723 17.3062V21.3396C11.2723 22.2278 10.6165 22.9477 9.80751 22.9477Z" fill="#49A010"/>
<path d="M2.03359 30.9235L0.196416 27.4307C-0.207971 26.6616 0.0320636 25.6782 0.732636 25.2341L3.9147 23.2174C6.49063 21.5843 9.78314 22.5489 11.2734 25.3819C12.2024 27.1474 13.1109 28.8752 13.1109 28.8752C13.5154 29.6443 13.2754 30.6277 12.5748 31.0718L9.39282 33.0886C6.81533 34.7219 3.52321 33.7573 2.03359 30.9235Z" fill="#49A010"/>
<path d="M9.47664 42.2459L6.29477 40.2292C5.5942 39.7852 5.35416 38.8019 5.75855 38.0328L7.59504 34.5396C9.08065 31.7153 12.3822 30.7446 14.9549 32.3747C14.955 32.3749 14.955 32.3749 14.9551 32.375C14.9549 32.3747 18.1366 34.3914 18.1366 34.3914C18.8376 34.8355 19.0773 35.8201 18.6728 36.5886C18.6727 36.5888 16.8359 40.0811 16.8359 40.0811C15.348 42.9096 12.0574 43.8822 9.47664 42.2459Z" fill="#49A010"/>
<path d="M38.8901 14.3928L42.0719 12.3761C44.6489 10.7429 45.5341 7.13055 44.0436 4.29702L42.2072 0.804285C41.8028 0.0353046 40.9072 -0.228205 40.2065 0.215409L37.024 2.23236C34.4519 3.8623 33.5669 7.48637 35.0515 10.3107C35.0516 10.3109 35.052 10.3115 35.0518 10.3113C35.0515 10.3107 36.8888 13.8038 36.8889 13.804C37.2913 14.5693 38.1858 14.8391 38.8901 14.3928Z" fill="#49A010"/>
<path d="M40.1935 22.9477H43.8672C46.8378 22.9477 49.2545 20.2946 49.2545 17.0335V13.0002C49.2545 12.1121 48.5987 11.3921 47.7897 11.3921H44.1159C41.1454 11.3921 38.7286 14.0451 38.7286 17.3062V21.3396C38.7286 22.2278 39.3845 22.9477 40.1935 22.9477Z" fill="#49A010"/>
<path d="M47.9663 30.9235L49.8035 27.4307C50.2079 26.6616 49.9678 25.6782 49.2673 25.2341L46.0852 23.2174C43.5093 21.5843 40.2168 22.5489 38.7265 25.3819C37.7975 27.1474 36.889 28.8752 36.889 28.8752C36.4845 29.6443 36.7245 30.6277 37.4251 31.0718L40.6072 33.0886C43.1846 34.7219 46.4767 33.7573 47.9663 30.9235Z" fill="#49A010"/>
<path d="M40.5244 42.2459L43.7062 40.2292C44.4068 39.7852 44.6468 38.8019 44.2424 38.0328L42.406 34.5396C40.9203 31.7153 37.6187 30.7446 35.0461 32.3747C35.046 32.3749 35.0459 32.3749 35.0458 32.375C35.0461 32.3747 31.8644 34.3914 31.8644 34.3914C31.1634 34.8355 30.9237 35.8201 31.3281 36.5886C31.3282 36.5888 33.1651 40.0811 33.1651 40.0811C34.653 42.9096 37.9435 43.8822 40.5244 42.2459Z" fill="#49A010"/>
<path d="M28.9231 9.5769H25.0006V30.0173H28.9231C29.7321 30.0173 30.3879 29.2974 30.3879 28.4093V11.185C30.3879 10.2969 29.7321 9.5769 28.9231 9.5769Z" fill="#3A7F0D"/>
</svg>
