<svg width="140" height="26" viewBox="0 0 140 26" fill="none" xmlns="http://www.w3.org/2000/svg">
<path d="M51.4321 3.25342V19.5764H58.0481V22.663H47.405V3.25342H51.4321Z" fill="#021135"/>
<path d="M66.879 7.00732C69.4391 7.00732 71.1938 8.17524 72.1431 9.45438V7.25759H76.199V22.6629H72.1431V20.4105C71.1938 21.7453 69.3816 22.9132 66.8503 22.9132C62.8231 22.9132 59.6014 19.7153 59.6014 14.9046C59.6014 10.094 62.8231 7.00732 66.879 7.00732ZM67.9146 10.4276C65.7572 10.4276 63.7149 11.9849 63.7149 14.9046C63.7149 17.8244 65.7572 19.4929 67.9146 19.4929C70.1295 19.4929 72.1431 17.88 72.1431 14.9603C72.1431 12.0405 70.1295 10.4276 67.9146 10.4276Z" fill="#021135"/>
<path d="M91.3006 14.1539C91.3006 11.679 89.8911 10.3442 87.7625 10.3442C85.5763 10.3442 84.1668 11.679 84.1668 14.1539V22.663H80.1397V7.25762H84.1668V9.17633C85.2024 7.86938 86.9283 7.03516 88.9706 7.03516C92.6813 7.03516 95.3277 9.37099 95.3277 13.6255V22.663H91.3006V14.1539Z" fill="#021135"/>
<path d="M105.424 7.00737C107.524 7.00737 109.538 7.95283 110.631 9.39882V2.08545H114.715V22.663H110.631V20.3828C109.682 21.801 107.898 22.9133 105.396 22.9133C101.34 22.9133 98.1179 19.7154 98.1179 14.9047C98.1179 10.094 101.34 7.00737 105.424 7.00737ZM106.431 10.4277C104.274 10.4277 102.231 11.9849 102.231 14.9047C102.231 17.8245 104.274 19.4929 106.431 19.4929C108.646 19.4929 110.66 17.8801 110.66 14.9603C110.66 12.0405 108.646 10.4277 106.431 10.4277Z" fill="#021135"/>
<path d="M118.225 3.14203C118.225 1.86289 119.26 0.861816 120.699 0.861816C122.108 0.861816 123.172 1.86289 123.172 3.14203C123.172 4.42118 122.108 5.42224 120.699 5.42224C119.26 5.42224 118.225 4.42118 118.225 3.14203ZM118.656 7.25754H122.683V22.6629H118.656V7.25754Z" fill="#021135"/>
<path d="M132.176 17.8798L129.271 22.6627H124.956L130.162 14.9322L124.898 7.25732H129.443L132.694 12.0124L135.628 7.25732H139.942L134.707 14.9322L140 22.6627H135.455L132.176 17.8798Z" fill="#021135"/>
<path d="M26.8954 26C24.4503 26 22.1491 25.3605 20.1643 24.2482C24.1915 21.9957 26.8954 17.7968 26.8954 12.9861H13.4333C13.4333 8.17543 16.1372 3.9765 20.1643 1.72409C22.1491 0.639597 24.4503 0.027832 26.8954 0.027832C34.3168 0.027832 40.3287 5.8396 40.3287 13.0139C40.3287 20.1883 34.3168 26 26.8954 26Z" fill="#D3D3D3"/>
<path d="M20.1643 24.2757C16.1372 22.0233 13.4333 17.8244 13.4333 13.0137H26.8666C26.8954 17.8244 24.1915 22.0233 20.1643 24.2757Z" fill="url(#paint0_linear_2_8051)"/>
<path d="M20.1644 24.2759C24.1915 22.0235 26.8954 17.8246 26.8954 13.0139H13.4333C13.4333 8.20321 16.1372 4.00428 20.1644 1.75187C18.1796 0.639572 15.8784 0 13.4333 0C6.01192 0.0278075 0 5.83957 0 13.0139C0 20.1882 6.01192 26 13.4333 26C15.8784 26 18.1796 25.3882 20.1644 24.2759Z" fill="#588535"/>
<g style="mix-blend-mode:multiply" opacity="0.3">
<path d="M13.4333 13.014H26.8666L20.1643 1.75195C16.1372 4.00436 13.4333 8.20329 13.4333 13.014Z" fill="url(#paint1_linear_2_8051)"/>
</g>
<g style="mix-blend-mode:multiply" opacity="0.3">
<path d="M13.4333 12.9861C13.4333 8.1754 16.1372 3.97647 20.1643 1.72406C18.1795 0.639572 15.8783 0 13.4333 0C10.9883 0 8.68705 0.639572 6.73102 1.72406L13.4333 12.9861Z" fill="url(#paint2_linear_2_8051)"/>
</g>
<defs>
<linearGradient id="paint0_linear_2_8051" x1="6.63197" y1="3.24987" x2="27.2407" y2="23.6801" gradientUnits="userSpaceOnUse">
<stop stop-color="#FFCF8B"/>
<stop offset="1" stop-color="#FF8B79"/>
</linearGradient>
<linearGradient id="paint1_linear_2_8051" x1="20.1644" y1="-8.65352" x2="20.1644" y2="12.6631" gradientUnits="userSpaceOnUse">
<stop offset="0.4935" stop-color="white"/>
<stop offset="0.5384" stop-color="#F3F3F3"/>
<stop offset="0.6207" stop-color="#D1D1D1"/>
<stop offset="0.731" stop-color="#9C9C9C"/>
<stop offset="0.8655" stop-color="#515151"/>
<stop offset="1"/>
</linearGradient>
<linearGradient id="paint2_linear_2_8051" x1="9.33685" y1="-4.39353" x2="16.9073" y2="8.36593" gradientUnits="userSpaceOnUse">
<stop offset="0.4935" stop-color="white"/>
<stop offset="0.5384" stop-color="#F3F3F3"/>
<stop offset="0.6207" stop-color="#D1D1D1"/>
<stop offset="0.731" stop-color="#9C9C9C"/>
<stop offset="0.8655" stop-color="#515151"/>
<stop offset="1"/>
</linearGradient>
</defs>
</svg>
