<svg width="50" height="45" fill="none" xmlns="http://www.w3.org/2000/svg"><path d="M28.672 44.323L25 40.293l-3.67 4.03c-.573.628-1.5.628-2.072 0a1.721 1.721 0 010-2.274l4.707-5.167a1.375 1.375 0 012.071 0l4.707 5.167a1.721 1.721 0 010 2.274c-.572.628-1.5.628-2.071 0z" fill="#3A7F0D"/><path d="M28.672 44.323a1.374 1.374 0 002.071 0 1.721 1.721 0 000-2.274l-4.707-5.167a1.397 1.397 0 00-1.035-.471v3.882l3.67 4.03z" fill="#3A7F0D"/><path d="M25 39.627c-9.185 0-16.658-8.204-16.658-18.287 0-3.214.774-6.378 2.234-9.148.406-.768 1.302-1.03 2.002-.585.7.445.94 1.428.534 2.197-1.203 2.28-1.84 4.888-1.84 7.536 0 8.31 6.158 15.07 13.728 15.07 7.57 0 13.729-6.76 13.729-15.07 0-2.648-.637-5.256-1.84-7.536-.406-.769-.167-1.752.534-2.197.7-.445 1.596-.183 2.001.585 1.461 2.77 2.234 5.934 2.234 9.148 0 10.083-7.472 18.287-16.658 18.287z" fill="#3A7F0D"/><path d="M25 36.41c7.57 0 13.73-6.76 13.73-15.07 0-2.648-.638-5.256-1.84-7.536-.406-.769-.167-1.752.533-2.197.7-.445 1.596-.183 2.002.585 1.46 2.77 2.234 5.934 2.234 9.148 0 10.083-7.473 18.287-16.658 18.287V36.41z" fill="#3A7F0D"/><path d="M28.923 30.017h-6.276c-.81 0-1.465-.72-1.465-1.608v-8.726h-2.458c-.555 0-1.062-.344-1.31-.89a1.74 1.74 0 01.139-1.683l4.706-6.89a1.426 1.426 0 011.172-.643h5.492c.809 0 1.465.72 1.465 1.608v17.224c0 .888-.656 1.608-1.465 1.608zM11.11 14.393l-3.18-2.017c-2.577-1.633-3.462-5.245-1.972-8.079L7.794.804c.404-.769 1.3-1.032 2-.589l3.183 2.017c2.572 1.63 3.457 5.254 1.972 8.079l-1.837 3.493c-.402.765-1.297 1.035-2.001.589z" fill="#49A010"/><path d="M9.808 22.948H6.134c-2.97 0-5.388-2.653-5.388-5.915V13c0-.888.656-1.608 1.465-1.608h3.674c2.97 0 5.387 2.653 5.387 5.914v4.034c0 .888-.655 1.608-1.464 1.608z" fill="#49A010"/><path d="M2.034 30.924L.196 27.43c-.404-.77-.164-1.753.537-2.197l3.182-2.017c2.576-1.633 5.868-.668 7.358 2.165.93 1.765 1.838 3.493 1.838 3.493.404.77.164 1.753-.536 2.197l-3.182 2.017c-2.578 1.633-5.87.668-7.36-2.165z" fill="#49A010"/><path d="M9.477 42.246l-3.182-2.017c-.7-.444-.94-1.427-.536-2.196l1.836-3.493c1.486-2.825 4.787-3.795 7.36-2.165l3.182 2.016c.7.445.94 1.43.536 2.198l-1.837 3.492c-1.488 2.829-4.779 3.801-7.36 2.165zM38.89 14.393l3.182-2.017c2.577-1.633 3.462-5.245 1.972-8.079L42.207.804c-.404-.769-1.3-1.032-2-.589l-3.183 2.017c-2.572 1.63-3.457 5.254-1.973 8.079 0 0 .001 0 0 0l1.838 3.493c.402.765 1.297 1.035 2.001.589z" fill="#49A010"/><path d="M40.194 22.948h3.673c2.97 0 5.388-2.653 5.388-5.915V13c0-.888-.656-1.608-1.465-1.608h-3.674c-2.97 0-5.387 2.653-5.387 5.914v4.034c0 .888.656 1.608 1.465 1.608z" fill="#49A010"/><path d="M47.966 30.924l1.837-3.493c.405-.77.165-1.753-.536-2.197l-3.182-2.017c-2.576-1.633-5.868-.668-7.358 2.165-.93 1.765-1.838 3.493-1.838 3.493-.405.77-.165 1.753.536 2.197l3.182 2.017c2.578 1.633 5.87.668 7.36-2.165z" fill="#49A010"/><path d="M40.524 42.246l3.182-2.017c.7-.444.94-1.427.536-2.196l-1.836-3.493c-1.486-2.825-4.787-3.795-7.36-2.165l-3.182 2.016c-.7.445-.94 1.43-.536 2.198l1.837 3.492c1.488 2.829 4.779 3.801 7.36 2.165z" fill="#49A010"/><path d="M28.923 9.577h-3.922v20.44h3.922c.81 0 1.465-.72 1.465-1.608V11.185c0-.888-.656-1.608-1.465-1.608z" fill="#3A7F0D"/></svg>