<svg width="140" height="26" fill="none" xmlns="http://www.w3.org/2000/svg"><path d="M51.432 3.253v16.323h6.616v3.087H47.405V3.253h4.027zm15.447 3.754c2.56 0 4.315 1.168 5.264 2.447V7.258H76.2v15.405h-4.056V20.41c-.95 1.335-2.761 2.503-5.293 2.503-4.027 0-7.249-3.198-7.249-8.008 0-4.811 3.222-7.898 7.278-7.898zm1.036 3.42c-2.158 0-4.2 1.558-4.2 4.478s2.042 4.588 4.2 4.588c2.214 0 4.228-1.613 4.228-4.533 0-2.92-2.014-4.532-4.228-4.532zM91.3 14.154c0-2.475-1.409-3.81-3.537-3.81-2.187 0-3.596 1.335-3.596 3.81v8.509H80.14V7.258h4.027v1.918c1.035-1.307 2.761-2.14 4.804-2.14 3.71 0 6.357 2.335 6.357 6.59v9.037H91.3v-8.51zm14.124-7.147c2.1 0 4.114.946 5.207 2.392V2.085h4.084v20.578h-4.084v-2.28c-.949 1.418-2.733 2.53-5.235 2.53-4.056 0-7.278-3.198-7.278-8.008 0-4.811 3.222-7.898 7.306-7.898zm1.007 3.42c-2.157 0-4.2 1.558-4.2 4.478s2.043 4.588 4.2 4.588c2.215 0 4.229-1.613 4.229-4.533 0-2.92-2.014-4.532-4.229-4.532zm11.794-7.285c0-1.28 1.035-2.28 2.474-2.28 1.409 0 2.473 1 2.473 2.28 0 1.28-1.064 2.28-2.473 2.28-1.439 0-2.474-1-2.474-2.28zm.431 4.116h4.027v15.405h-4.027V7.258zm13.52 10.622l-2.905 4.783h-4.315l5.206-7.73-5.264-7.676h4.545l3.251 4.755 2.934-4.755h4.314l-5.235 7.675 5.293 7.73h-4.545l-3.279-4.782z" fill="#021135"/><path d="M26.895 26a13.74 13.74 0 01-6.73-1.752c4.027-2.252 6.73-6.451 6.73-11.262H13.433c0-4.81 2.704-9.01 6.731-11.262A14.01 14.01 0 0126.895.028c7.422 0 13.434 5.812 13.434 12.986S34.317 26 26.895 26z" fill="#D3D3D3"/><path d="M20.164 24.276c-4.027-2.253-6.73-6.452-6.73-11.262h13.433c.028 4.81-2.675 9.01-6.703 11.262z" fill="url(#paint0_linear_2_8051)"/><path d="M20.164 24.276c4.027-2.253 6.731-6.451 6.731-11.262H13.433c0-4.81 2.704-9.01 6.731-11.262A13.743 13.743 0 0013.434 0C6.011.028 0 5.84 0 13.014 0 20.188 6.012 26 13.433 26c2.445 0 4.747-.612 6.731-1.724z" fill="#588535"/><path d="M13.433 13.014h13.434L20.164 1.752c-4.027 2.252-6.73 6.451-6.73 11.262z" fill="url(#paint1_linear_2_8051)" opacity=".3"/><path d="M13.433 12.986c0-4.81 2.704-9.01 6.731-11.262A14.03 14.03 0 0013.434 0C10.987 0 8.686.64 6.73 1.724l6.702 11.262z" fill="url(#paint2_linear_2_8051)" opacity=".3"/><defs><linearGradient id="paint0_linear_2_8051" x1="6.632" y1="3.25" x2="27.241" y2="23.68" gradientUnits="userSpaceOnUse"><stop stop-color="#FFCF8B"/><stop offset="1" stop-color="#FF8B79"/></linearGradient><linearGradient id="paint1_linear_2_8051" x1="20.164" y1="-8.654" x2="20.164" y2="12.663" gradientUnits="userSpaceOnUse"><stop offset=".493" stop-color="#fff"/><stop offset=".538" stop-color="#F3F3F3"/><stop offset=".621" stop-color="#D1D1D1"/><stop offset=".731" stop-color="#9C9C9C"/><stop offset=".866" stop-color="#515151"/><stop offset="1"/></linearGradient><linearGradient id="paint2_linear_2_8051" x1="9.337" y1="-4.394" x2="16.907" y2="8.366" gradientUnits="userSpaceOnUse"><stop offset=".493" stop-color="#fff"/><stop offset=".538" stop-color="#F3F3F3"/><stop offset=".621" stop-color="#D1D1D1"/><stop offset=".731" stop-color="#9C9C9C"/><stop offset=".866" stop-color="#515151"/><stop offset="1"/></linearGradient></defs></svg>